<svg width="300" height="450" viewBox="0 0 300 450" fill="none" xmlns="http://www.w3.org/2000/svg">
  <rect width="300" height="450" fill="#1a1a1a"/>
  <rect x="20" y="20" width="260" height="410" fill="#2d2d2d" stroke="#444" stroke-width="2" rx="8"/>
  
  <!-- Film strip holes -->
  <rect x="10" y="40" width="8" height="12" fill="#000" rx="2"/>
  <rect x="10" y="70" width="8" height="12" fill="#000" rx="2"/>
  <rect x="10" y="100" width="8" height="12" fill="#000" rx="2"/>
  <rect x="10" y="130" width="8" height="12" fill="#000" rx="2"/>
  <rect x="10" y="160" width="8" height="12" fill="#000" rx="2"/>
  <rect x="10" y="190" width="8" height="12" fill="#000" rx="2"/>
  <rect x="10" y="220" width="8" height="12" fill="#000" rx="2"/>
  <rect x="10" y="250" width="8" height="12" fill="#000" rx="2"/>
  <rect x="10" y="280" width="8" height="12" fill="#000" rx="2"/>
  <rect x="10" y="310" width="8" height="12" fill="#000" rx="2"/>
  <rect x="10" y="340" width="8" height="12" fill="#000" rx="2"/>
  <rect x="10" y="370" width="8" height="12" fill="#000" rx="2"/>
  <rect x="10" y="400" width="8" height="12" fill="#000" rx="2"/>
  
  <rect x="282" y="40" width="8" height="12" fill="#000" rx="2"/>
  <rect x="282" y="70" width="8" height="12" fill="#000" rx="2"/>
  <rect x="282" y="100" width="8" height="12" fill="#000" rx="2"/>
  <rect x="282" y="130" width="8" height="12" fill="#000" rx="2"/>
  <rect x="282" y="160" width="8" height="12" fill="#000" rx="2"/>
  <rect x="282" y="190" width="8" height="12" fill="#000" rx="2"/>
  <rect x="282" y="220" width="8" height="12" fill="#000" rx="2"/>
  <rect x="282" y="250" width="8" height="12" fill="#000" rx="2"/>
  <rect x="282" y="280" width="8" height="12" fill="#000" rx="2"/>
  <rect x="282" y="310" width="8" height="12" fill="#000" rx="2"/>
  <rect x="282" y="340" width="8" height="12" fill="#000" rx="2"/>
  <rect x="282" y="370" width="8" height="12" fill="#000" rx="2"/>
  <rect x="282" y="400" width="8" height="12" fill="#000" rx="2"/>
  
  <!-- Movie camera icon -->
  <g transform="translate(120, 180)">
    <rect x="0" y="20" width="60" height="40" fill="#666" rx="4"/>
    <circle cx="30" cy="40" r="15" fill="#333"/>
    <circle cx="30" cy="40" r="10" fill="#555"/>
    <circle cx="30" cy="40" r="6" fill="#777"/>
    <rect x="-10" y="35" width="15" height="10" fill="#666" rx="2"/>
    <rect x="55" y="35" width="15" height="10" fill="#666" rx="2"/>
  </g>
  
  <!-- Text -->
  <text x="150" y="280" text-anchor="middle" fill="#888" font-family="Arial, sans-serif" font-size="16" font-weight="bold">POSTER FILM</text>
  <text x="150" y="300" text-anchor="middle" fill="#666" font-family="Arial, sans-serif" font-size="12">Tidak Tersedia</text>
</svg>